HIERARCHY
ROOT Hips
{
	OFFSET -0.001795 -0.223333 0.028219
	CHANNELS 6 Xposition Yposition Zposition Zrotation Yrotation Xrotation 
	JOINT LeftUpLeg
	{
		OFFSET 0.069520 -0.091406 -0.006815
		CHANNELS 3 Zrotation Yrotation Xrotation
		JOINT LeftLeg
		{
			OFFSET 0.034277 -0.375199 -0.004496
			CHANNELS 3 Zrotation Yrotation Xrotation
			JOINT LeftFoot
			{
				OFFSET -0.013596 -0.397961 -0.043693
				CHANNELS 3 Zrotation Yrotation Xrotation
				JOINT LeftToe
				{
					OFFSET 0.026358 -0.055791 0.119288
					CHANNELS 3 Zrotation Yrotation Xrotation
					End Site
					{
						OFFSET 0.000000 0.000000 0.000000
					}
				}
			}
		}
	}
	JOINT RightUpLeg
	{
		OFFSET -0.067670 -0.090522 -0.004320
		CHANNELS 3 Zrotation Yrotation Xrotation
		JOINT RightLeg
		{
			OFFSET -0.038290 -0.382569 -0.008850
			CHANNELS 3 Zrotation Yrotation Xrotation
			JOINT RightFoot
			{
				OFFSET 0.015774 -0.398415 -0.042312
				CHANNELS 3 Zrotation Yrotation Xrotation
				JOINT RightToe
				{
					OFFSET -0.025372 -0.048144 0.123348
					CHANNELS 3 Zrotation Yrotation Xrotation
					End Site
					{
						OFFSET 0.000000 0.000000 0.000000
					}
				}
			}
		}
	}
	JOINT Spine
	{
		OFFSET -0.002533 0.108963 -0.026696
		CHANNELS 3 Zrotation Yrotation Xrotation
		JOINT Spine1
		{
			OFFSET 0.005487 0.135180 0.001092
			CHANNELS 3 Zrotation Yrotation Xrotation
			JOINT Spine2
			{
				OFFSET 0.001457 0.052922 0.025425
				CHANNELS 3 Zrotation Yrotation Xrotation
				JOINT Neck
				{
					OFFSET -0.002778 0.213870 -0.042857
					CHANNELS 3 Zrotation Yrotation Xrotation
					JOINT Head
					{
						OFFSET 0.005152 0.064970 0.051349
						CHANNELS 3 Zrotation Yrotation Xrotation
						End Site
						{
							OFFSET 0.000000 0.000000 0.000000
						}
					}
				}
				JOINT LeftShoulder
				{
					OFFSET 0.078845 0.121749 -0.034090
					CHANNELS 3 Zrotation Yrotation Xrotation
					JOINT LeftArm
					{
						OFFSET 0.090977 0.030469 -0.008868
						CHANNELS 3 Zrotation Yrotation Xrotation
						JOINT LeftForeArm
						{
							OFFSET 0.259612 -0.012772 -0.027456
							CHANNELS 3 Zrotation Yrotation Xrotation
							JOINT LeftHand
							{
								OFFSET 0.249234 0.008986 -0.001171
								CHANNELS 3 Zrotation Yrotation Xrotation
								End Site
								{
									OFFSET 0.000000 0.000000 0.000000
								}
							}
						}
					}
				}
				JOINT RightShoulder
				{
					OFFSET -0.081759 0.118833 -0.038615
					CHANNELS 3 Zrotation Yrotation Xrotation
					JOINT RightArm
					{
						OFFSET -0.096012 0.032551 -0.009143
						CHANNELS 3 Zrotation Yrotation Xrotation
						JOINT RightForeArm
						{
							OFFSET -0.253742 -0.013329 -0.021401
							CHANNELS 3 Zrotation Yrotation Xrotation
							JOINT RightHand
							{
								OFFSET -0.255298 0.007772 -0.005559
								CHANNELS 3 Zrotation Yrotation Xrotation
								End Site
								{
									OFFSET 0.000000 0.000000 0.000000
								}
							}
						}
					}
				}
			}
		}
	}
}
MOTION
Frames: 16
Frame Time: 0.050000
-0.022852 0.949769 0.011455 -1.093076 -0.513650 7.944598 4.612706 -0.413219 -5.280819 3.803308 -0.094921 -4.620378 -1.379924 1.586233 10.241097 0.000000 0.000000 0.000000 -5.464085 0.652393 -7.729901 -1.666747 0.104895 -1.192927 0.852678 -3.499098 12.365409 0.000000 0.000000 0.000000 -2.054418 0.279309 -8.551255 1.886204 -0.867376 -0.390407 1.308000 -2.152688 3.294977 1.086527 -0.897699 0.206474 0.000000 0.000000 0.000000 -3.106014 6.035588 -2.457144 -26.168970 -17.532721 0.222498 173.072922 -65.322674 -160.556835 0.000000 0.000000 0.000000 0.423018 -1.641808 -0.613055 30.401109 20.688025 1.759754 -119.146005 43.501081 -63.714536 0.000000 0.000000 0.000000 
-0.023730 0.949320 0.011157 -1.599171 0.453454 8.467277 5.657304 -0.448092 -6.093243 3.432668 -0.078531 -4.416913 -1.404155 1.794975 10.627892 0.000000 0.000000 0.000000 -4.798916 0.668576 -7.809567 -1.215909 0.041766 -1.667793 0.477029 -3.892711 11.829851 0.000000 0.000000 0.000000 -1.930116 0.281193 -8.719735 1.907363 -0.877409 -0.390285 1.928924 -2.184930 3.608580 2.184548 -1.788443 0.219208 0.000000 0.000000 0.000000 -4.149579 7.406028 -3.121989 -29.604923 -15.807746 0.001688 168.772195 -62.093020 -152.612397 0.000000 0.000000 0.000000 3.320193 -3.247765 -1.589394 34.319678 20.434875 2.071631 -117.359357 41.705843 -59.190234 0.000000 0.000000 0.000000 
-0.024961 0.949281 0.010736 -1.860460 1.140485 8.813959 6.265801 -0.450362 -6.089614 3.600334 -0.049486 -4.981759 -1.765366 1.227283 10.568642 0.000000 0.000000 0.000000 -4.674439 0.679130 -7.986066 -0.715051 -0.012760 -1.908856 -0.030847 -4.653352 11.440292 0.000000 0.000000 0.000000 -1.873288 0.287047 -9.145348 2.080510 -0.968138 -0.216240 2.439861 -2.524997 3.710570 2.616265 -2.146396 0.275748 0.000000 0.000000 0.000000 -5.598708 9.053978 -3.978366 -34.712606 -13.765457 -0.369465 166.611905 -58.967775 -147.206393 0.000000 0.000000 0.000000 5.411695 -4.514963 -2.403333 41.399758 20.509015 2.780289 -118.294277 40.457234 -58.305609 0.000000 0.000000 0.000000 
-0.025975 0.948353 0.010191 -2.276670 2.176746 8.916710 7.182994 -0.453568 -6.057499 3.078607 0.004848 -5.294644 -1.936159 0.965497 10.366071 0.000000 0.000000 0.000000 -4.014908 0.694576 -8.071156 -0.527884 -0.020801 -1.749204 -0.503818 -5.250110 10.807984 0.000000 0.000000 0.000000 -1.929660 0.269301 -8.972233 2.375835 -1.100467 -0.349245 3.241988 -2.550833 3.630777 3.611066 -2.962900 0.372257 0.000000 0.000000 0.000000 -7.226104 9.978263 -4.638305 -39.288116 -12.816959 -0.583088 162.975883 -56.564755 -139.587153 0.000000 0.000000 0.000000 7.629986 -5.965706 -3.344118 47.793607 19.991466 3.239921 -120.446725 39.114172 -58.100461 0.000000 0.000000 0.000000 
-0.026363 0.948058 0.009331 -2.387630 2.425172 8.754797 7.355819 -0.445916 -5.804350 3.019231 0.004062 -5.214105 -2.192589 0.558777 10.381136 0.000000 0.000000 0.000000 -3.937844 0.702368 -8.219999 -0.333073 -0.008663 -1.051715 -0.458762 -4.966185 10.268546 0.000000 0.000000 0.000000 -1.686490 0.276330 -9.032042 2.670314 -1.287940 0.401151 3.607636 -2.398527 3.217627 3.803829 -3.105494 0.334721 0.000000 0.000000 0.000000 -7.640614 11.059406 -5.173034 -42.628563 -11.866267 -0.839440 158.114510 -56.085107 -131.090938 0.000000 0.000000 0.000000 9.238430 -7.035917 -4.078383 53.443489 19.393772 3.584688 -123.971360 40.537775 -63.528742 0.000000 0.000000 0.000000 
-0.026089 0.947529 0.008040 -2.497288 2.070820 8.806488 7.677727 -0.438403 -5.779433 2.990311 0.000390 -5.141031 -1.760634 1.286370 10.449231 0.000000 0.000000 0.000000 -3.752234 0.732537 -8.524505 -0.281112 -0.008047 -0.908474 -0.592567 -5.241371 10.137926 0.000000 0.000000 0.000000 -1.354172 0.300321 -9.236888 2.566250 -1.263279 0.831526 4.319475 -2.000452 2.951775 3.838980 -3.228195 1.187223 0.000000 0.000000 0.000000 -8.094657 11.148239 -5.299166 -43.825280 -10.859917 -1.171447 154.740186 -56.196761 -125.701663 0.000000 0.000000 0.000000 10.450640 -7.370491 -4.456855 56.955943 18.397448 3.471015 -127.540194 42.901817 -70.880030 0.000000 0.000000 0.000000 
-0.025153 0.947474 0.006307 -2.215237 2.320565 8.881488 7.276979 -0.454165 -5.993038 3.327646 -0.036403 -4.843143 -2.025824 0.934978 10.623035 0.000000 0.000000 0.000000 -3.910644 0.755324 -8.995006 -0.374174 0.034748 -0.118214 -1.239163 -6.447091 9.923934 0.000000 0.000000 0.000000 -1.205214 0.306624 -9.351977 2.855203 -1.433285 1.272900 4.330624 -1.747571 2.238872 3.565402 -3.022697 1.470921 0.000000 0.000000 0.000000 -7.668822 11.092540 -5.217908 -43.662078 -10.832598 -1.125128 147.530078 -58.053332 -116.738381 0.000000 0.000000 0.000000 10.872108 -7.618810 -4.618013 58.485008 17.635874 3.317617 -131.879616 44.757660 -78.677258 0.000000 0.000000 0.000000 
-0.023927 0.947841 0.004080 -1.926988 2.038543 9.065725 6.672249 -0.464117 -6.136855 3.706484 -0.062954 -4.803703 -1.940434 0.925773 10.319172 0.000000 0.000000 0.000000 -4.048403 0.795019 -9.646985 -0.824422 0.107035 0.431513 -1.435100 -6.744665 9.444261 0.000000 0.000000 0.000000 -1.191572 0.314034 -9.452714 3.035667 -1.539262 1.586408 4.677472 -1.260296 1.956555 3.788516 -3.220368 1.630045 0.000000 0.000000 0.000000 -7.364374 10.824407 -5.064614 -42.846246 -10.945536 -1.059828 140.737688 -59.494983 -108.842980 0.000000 0.000000 0.000000 10.953213 -7.150138 -4.399765 58.790630 17.711117 3.429922 -134.669795 45.433599 -83.130096 0.000000 0.000000 0.000000 
-0.022772 0.948307 0.001754 -1.534297 2.483426 9.360988 6.322483 -0.497859 -6.641890 3.842226 -0.075065 -4.703733 -2.363385 0.460393 10.814904 0.000000 0.000000 0.000000 -4.489750 0.788342 -9.902821 -0.871294 0.107166 0.312528 -1.777828 -7.440306 9.666689 0.000000 0.000000 0.000000 -1.263935 0.302277 -9.303898 3.187862 -1.600649 1.361637 4.527046 -1.408297 1.674716 3.211940 -2.677176 1.081470 0.000000 0.000000 0.000000 -7.384645 10.553767 -4.964767 -42.625491 -12.012045 -0.675736 133.432853 -59.984970 -99.869594 0.000000 0.000000 0.000000 10.646359 -6.475980 -4.036404 58.472821 18.114487 3.648145 -135.652657 44.897003 -83.597709 0.000000 0.000000 0.000000 
-0.021977 0.949013 -0.000363 -1.277054 2.834610 9.450219 5.774013 -0.522968 -6.924359 4.293692 -0.091384 -4.838728 -2.794416 -0.194279 10.897949 0.000000 0.000000 0.000000 -4.743212 0.788464 -10.194022 -0.813475 0.123892 0.812054 -2.255353 -8.310897 9.454606 0.000000 0.000000 0.000000 -1.512989 0.283578 -9.098128 3.516824 -1.778718 1.560815 4.314300 -1.326988 1.000550 3.884106 -3.233438 1.280294 0.000000 0.000000 0.000000 -8.352141 9.894412 -4.899004 -42.350933 -12.675080 -0.408884 129.261740 -60.139516 -95.119657 0.000000 0.000000 0.000000 10.406784 -5.905684 -3.717403 57.826606 18.340788 3.789616 -134.505532 44.303959 -81.072705 0.000000 0.000000 0.000000 
-0.021587 0.949651 -0.002148 -1.208442 3.506021 9.436272 5.543608 -0.536651 -6.984542 4.445809 -0.081192 -5.064775 -2.999861 -0.416473 10.994915 0.000000 0.000000 0.000000 -4.779485 0.771259 -10.082306 -0.721507 0.111625 0.760073 -2.771888 -9.368373 9.930965 0.000000 0.000000 0.000000 -1.890051 0.257608 -8.976702 3.676915 -1.880537 1.756295 4.158435 -1.614140 0.803229 3.958467 -3.212518 0.683638 0.000000 0.000000 0.000000 -9.140604 9.417808 -4.853975 -42.886278 -13.972660 0.053391 126.470826 -60.634348 -92.413764 0.000000 0.000000 0.000000 10.729093 -5.455563 -3.566444 57.076480 18.187665 3.669369 -132.104591 43.920175 -77.394410 0.000000 0.000000 0.000000 
-0.021327 0.949888 -0.003767 -1.196062 4.069980 9.505693 5.514065 -0.559210 -7.316099 4.518734 -0.083002 -5.056447 -3.152161 -0.423887 11.389879 0.000000 0.000000 0.000000 -5.045294 0.752484 -10.126745 -0.532269 0.096835 0.921206 -3.158958 -10.095373 10.050639 0.000000 0.000000 0.000000 -2.091407 0.241402 -8.852792 3.701672 -1.896321 1.729576 3.908492 -1.701696 0.439664 4.222480 -3.390468 0.493530 0.000000 0.000000 0.000000 -9.838378 8.306959 -4.530687 -43.348620 -14.828152 0.389790 125.518879 -61.300587 -92.241262 0.000000 0.000000 0.000000 11.154476 -4.994035 -3.405256 56.499796 17.347854 3.254941 -129.940918 44.975194 -76.176743 0.000000 0.000000 0.000000 
-0.020851 0.950125 -0.005378 -1.372282 4.493719 9.393453 5.701615 -0.558762 -7.290328 4.321799 -0.064899 -5.125647 -3.113235 -0.380574 11.225163 0.000000 0.000000 0.000000 -4.972686 0.737274 -9.888658 -0.354181 0.078003 0.973624 -3.295291 -10.350375 10.247281 0.000000 0.000000 0.000000 -2.194793 0.231627 -8.838416 3.593185 -1.853829 1.801786 3.833688 -1.802832 0.620702 4.464786 -3.593209 0.508156 0.000000 0.000000 0.000000 -10.079718 7.620406 -4.286447 -44.180979 -15.228582 0.542514 128.028387 -62.451845 -96.587475 0.000000 0.000000 0.000000 11.218278 -4.855711 -3.333289 55.622527 16.570399 2.791696 -125.899595 46.222510 -73.111722 0.000000 0.000000 0.000000 
-0.019861 0.950390 -0.006991 -1.595600 4.481565 9.396853 5.810726 -0.559047 -7.347110 4.179112 -0.037374 -5.417536 -3.098525 -0.184254 11.601954 0.000000 0.000000 0.000000 -4.998060 0.730144 -9.772076 -0.308805 0.078531 1.124052 -3.082803 -9.983484 10.559582 0.000000 0.000000 0.000000 -2.071781 0.233635 -8.631040 3.278625 -1.715809 2.015901 4.004043 -1.870385 0.670086 4.311813 -3.494063 0.672148 0.000000 0.000000 0.000000 -10.590383 7.201215 -4.178691 -45.376968 -15.319144 0.613279 132.784753 -63.498284 -103.466120 0.000000 0.000000 0.000000 11.534640 -4.622155 -3.293090 54.425195 16.293397 2.561581 -121.572096 47.074449 -69.622071 0.000000 0.000000 0.000000 
-0.018314 0.950330 -0.008738 -1.560936 4.565096 9.293169 5.682615 -0.564481 -7.435486 4.062884 -0.041005 -5.265883 -3.104065 -0.162869 11.641780 0.000000 0.000000 0.000000 -5.270872 0.712993 -9.767295 -0.124691 0.056836 1.138461 -2.995715 -9.844878 10.817067 0.000000 0.000000 0.000000 -2.010191 0.229642 -8.325361 3.018400 -1.607389 2.260426 4.146132 -2.072850 0.807740 4.015179 -3.295110 0.946621 0.000000 0.000000 0.000000 -11.394185 7.047640 -4.222496 -46.700710 -14.414326 0.297136 140.658686 -64.641476 -114.602516 0.000000 0.000000 0.000000 11.715896 -4.544011 -3.311119 53.832886 15.888816 2.311514 -117.165123 48.216306 -66.714772 0.000000 0.000000 0.000000 
-0.016201 0.950621 -0.010648 -1.483479 4.521703 9.276580 5.467282 -0.570896 -7.521139 3.983802 -0.030984 -5.356440 -2.936850 0.119695 11.647257 0.000000 0.000000 0.000000 -5.730735 0.693562 -9.878285 0.113220 0.033231 1.284823 -2.937063 -9.785337 11.125689 0.000000 0.000000 0.000000 -2.019942 0.222883 -7.887075 2.925327 -1.587178 2.598303 4.253445 -2.077702 0.558524 3.932676 -3.258878 1.239387 0.000000 0.000000 0.000000 -12.241738 6.977540 -4.327905 -48.632636 -13.884877 0.156183 148.111243 -65.652414 -125.547866 0.000000 0.000000 0.000000 12.247489 -4.226277 -3.264310 52.403306 15.497705 2.069678 -112.968396 49.069271 -63.791516 0.000000 0.000000 0.000000 
